<mxfile host="65bd71144e">
    <diagram id="23b9Yy3cnA8nfvik3ojF" name="Page-1">
        <mxGraphModel dx="1538" dy="1703" grid="1" gridSize="10" guides="1" tooltips="1" connect="1" arrows="1" fold="1" page="1" pageScale="1" pageWidth="827" pageHeight="1169" math="0" shadow="0">
            <root>
                <mxCell id="0"/>
                <mxCell id="1" parent="0"/>
                <mxCell id="9g5ZNy5dnL1bTdVQF-Ld-1" style="edgeStyle=none;html=1;exitX=0;exitY=0.5;exitDx=0;exitDy=0;entryX=0.5;entryY=0;entryDx=0;entryDy=0;" parent="1" source="9g5ZNy5dnL1bTdVQF-Ld-2" target="9g5ZNy5dnL1bTdVQF-Ld-4" edge="1">
                    <mxGeometry relative="1" as="geometry">
                        <Array as="points">
                            <mxPoint x="50" y="320"/>
                            <mxPoint x="50" y="-50"/>
                            <mxPoint x="410" y="-50"/>
                        </Array>
                    </mxGeometry>
                </mxCell>
                <mxCell id="9g5ZNy5dnL1bTdVQF-Ld-2" value="V" style="rounded=0;whiteSpace=wrap;html=1;fillColor=#fad9d5;strokeColor=#ae4132;" parent="1" vertex="1">
                    <mxGeometry x="175" y="290" width="105" height="60" as="geometry"/>
                </mxCell>
                <mxCell id="9g5ZNy5dnL1bTdVQF-Ld-3" style="edgeStyle=none;html=1;exitX=0.577;exitY=0.9;exitDx=0;exitDy=0;entryX=0.5;entryY=0;entryDx=0;entryDy=0;fontColor=#050505;exitPerimeter=0;" parent="1" source="9g5ZNy5dnL1bTdVQF-Ld-4" target="9g5ZNy5dnL1bTdVQF-Ld-5" edge="1">
                    <mxGeometry relative="1" as="geometry"/>
                </mxCell>
                <mxCell id="9g5ZNy5dnL1bTdVQF-Ld-4" value="" style="whiteSpace=wrap;html=1;fillColor=#b1ddf0;strokeColor=#10739e;" parent="1" vertex="1">
                    <mxGeometry x="150" y="-10" width="520" height="100" as="geometry"/>
                </mxCell>
                <mxCell id="9g5ZNy5dnL1bTdVQF-Ld-5" value="" style="rhombus;whiteSpace=wrap;html=1;fillColor=#fad7ac;strokeColor=#b46504;" parent="1" vertex="1">
                    <mxGeometry x="350" y="135" width="200" height="130" as="geometry"/>
                </mxCell>
                <mxCell id="9g5ZNy5dnL1bTdVQF-Ld-6" value="&lt;font color=&quot;#191919&quot; style=&quot;font-size: 18px&quot;&gt;Paco (chat roux)a entendu parler de la légende du trésor caché dans la forêt Valark et souhaite vraiment le trouver&lt;/font&gt;" style="text;html=1;strokeColor=none;fillColor=none;align=center;verticalAlign=middle;whiteSpace=wrap;rounded=0;" parent="1" vertex="1">
                    <mxGeometry x="305" y="27.5" width="260" height="25" as="geometry"/>
                </mxCell>
                <mxCell id="9g5ZNy5dnL1bTdVQF-Ld-7" style="edgeStyle=none;html=1;entryX=0.25;entryY=0;entryDx=0;entryDy=0;exitX=0;exitY=0.5;exitDx=0;exitDy=0;" parent="1" source="9g5ZNy5dnL1bTdVQF-Ld-5" target="9g5ZNy5dnL1bTdVQF-Ld-13" edge="1">
                    <mxGeometry relative="1" as="geometry"/>
                </mxCell>
                <mxCell id="9g5ZNy5dnL1bTdVQF-Ld-8" value="Non" style="edgeLabel;html=1;align=center;verticalAlign=middle;resizable=0;points=[];fontSize=11;" parent="9g5ZNy5dnL1bTdVQF-Ld-7" vertex="1" connectable="0">
                    <mxGeometry x="-0.5109" y="3" relative="1" as="geometry">
                        <mxPoint as="offset"/>
                    </mxGeometry>
                </mxCell>
                <mxCell id="9g5ZNy5dnL1bTdVQF-Ld-9" style="edgeStyle=none;html=1;exitX=1;exitY=0.5;exitDx=0;exitDy=0;entryX=0.5;entryY=0;entryDx=0;entryDy=0;" parent="1" source="9g5ZNy5dnL1bTdVQF-Ld-5" target="9g5ZNy5dnL1bTdVQF-Ld-16" edge="1">
                    <mxGeometry relative="1" as="geometry"/>
                </mxCell>
                <mxCell id="9g5ZNy5dnL1bTdVQF-Ld-10" value="oui" style="edgeLabel;html=1;align=center;verticalAlign=middle;resizable=0;points=[];fontSize=11;" parent="9g5ZNy5dnL1bTdVQF-Ld-9" vertex="1" connectable="0">
                    <mxGeometry x="-0.4671" y="-1" relative="1" as="geometry">
                        <mxPoint x="3" y="12" as="offset"/>
                    </mxGeometry>
                </mxCell>
                <mxCell id="9g5ZNy5dnL1bTdVQF-Ld-11" value="&lt;div&gt;&lt;span&gt;est ce qu'il devrait sortir de son lit et se mettre à sa recherche?&lt;/span&gt;&lt;/div&gt;" style="text;html=1;strokeColor=none;fillColor=none;align=center;verticalAlign=middle;whiteSpace=wrap;rounded=0;fontColor=#191919;" parent="1" vertex="1">
                    <mxGeometry x="380" y="185" width="140" height="30" as="geometry"/>
                </mxCell>
                <mxCell id="9g5ZNy5dnL1bTdVQF-Ld-12" style="edgeStyle=none;html=1;exitX=0;exitY=0.5;exitDx=0;exitDy=0;entryX=1;entryY=0.5;entryDx=0;entryDy=0;fontColor=#050505;" parent="1" source="9g5ZNy5dnL1bTdVQF-Ld-13" target="9g5ZNy5dnL1bTdVQF-Ld-2" edge="1">
                    <mxGeometry relative="1" as="geometry"/>
                </mxCell>
                <mxCell id="9g5ZNy5dnL1bTdVQF-Ld-13" value="" style="rounded=0;whiteSpace=wrap;html=1;fillColor=#b0e3e6;strokeColor=#0e8088;" parent="1" vertex="1">
                    <mxGeometry x="320" y="290" width="90" height="60" as="geometry"/>
                </mxCell>
                <mxCell id="9g5ZNy5dnL1bTdVQF-Ld-14" value="&amp;nbsp;il reste dans son lit&amp;nbsp;" style="text;html=1;strokeColor=none;fillColor=none;align=center;verticalAlign=middle;whiteSpace=wrap;rounded=0;fontColor=#191919;" parent="1" vertex="1">
                    <mxGeometry x="335" y="305" width="60" height="30" as="geometry"/>
                </mxCell>
                <mxCell id="9g5ZNy5dnL1bTdVQF-Ld-15" style="edgeStyle=none;html=1;exitX=0.5;exitY=1;exitDx=0;exitDy=0;entryX=0.5;entryY=0;entryDx=0;entryDy=0;fontColor=#0A0A0A;" parent="1" source="9g5ZNy5dnL1bTdVQF-Ld-16" target="9g5ZNy5dnL1bTdVQF-Ld-19" edge="1">
                    <mxGeometry relative="1" as="geometry"/>
                </mxCell>
                <mxCell id="9g5ZNy5dnL1bTdVQF-Ld-16" value="" style="rounded=0;whiteSpace=wrap;html=1;fillColor=#b0e3e6;strokeColor=#0e8088;" parent="1" vertex="1">
                    <mxGeometry x="525" y="285" width="90" height="60" as="geometry"/>
                </mxCell>
                <mxCell id="9g5ZNy5dnL1bTdVQF-Ld-17" value="&lt;font color=&quot;#0a0a0a&quot;&gt;&amp;nbsp;il sort de son lit&lt;/font&gt;" style="text;html=1;strokeColor=none;fillColor=none;align=center;verticalAlign=middle;whiteSpace=wrap;rounded=0;container=1;" parent="1" vertex="1" collapsed="1">
                    <mxGeometry x="510" y="305" width="120" height="20" as="geometry">
                        <mxRectangle x="505" y="305" width="60" height="30" as="alternateBounds"/>
                    </mxGeometry>
                </mxCell>
                <mxCell id="9g5ZNy5dnL1bTdVQF-Ld-18" style="edgeStyle=none;html=1;exitX=0.5;exitY=1;exitDx=0;exitDy=0;fontColor=#050505;" parent="1" source="9g5ZNy5dnL1bTdVQF-Ld-19" edge="1">
                    <mxGeometry relative="1" as="geometry">
                        <mxPoint x="450" y="480" as="targetPoint"/>
                    </mxGeometry>
                </mxCell>
                <mxCell id="9g5ZNy5dnL1bTdVQF-Ld-19" value="&lt;font color=&quot;#050505&quot;&gt;Paco est sorti de son lit. Il ouvre la porte pour sortir dehors.&lt;/font&gt;" style="whiteSpace=wrap;html=1;fillColor=#b1ddf0;strokeColor=#10739e;" parent="1" vertex="1">
                    <mxGeometry x="370" y="380" width="160" height="70" as="geometry"/>
                </mxCell>
                <mxCell id="9g5ZNy5dnL1bTdVQF-Ld-20" style="edgeStyle=none;html=1;exitX=0;exitY=0.5;exitDx=0;exitDy=0;entryX=0.5;entryY=0;entryDx=0;entryDy=0;fontColor=#050505;" parent="1" source="9g5ZNy5dnL1bTdVQF-Ld-25" target="9g5ZNy5dnL1bTdVQF-Ld-32" edge="1">
                    <mxGeometry relative="1" as="geometry"/>
                </mxCell>
                <mxCell id="9g5ZNy5dnL1bTdVQF-Ld-21" value="Chemin gauche" style="edgeLabel;html=1;align=center;verticalAlign=middle;resizable=0;points=[];" parent="9g5ZNy5dnL1bTdVQF-Ld-20" vertex="1" connectable="0">
                    <mxGeometry x="-0.1916" y="1" relative="1" as="geometry">
                        <mxPoint as="offset"/>
                    </mxGeometry>
                </mxCell>
                <mxCell id="9g5ZNy5dnL1bTdVQF-Ld-24" style="edgeStyle=none;html=1;exitX=0.5;exitY=1;exitDx=0;exitDy=0;entryX=0.5;entryY=0;entryDx=0;entryDy=0;" parent="1" source="9g5ZNy5dnL1bTdVQF-Ld-25" target="9g5ZNy5dnL1bTdVQF-Ld-30" edge="1">
                    <mxGeometry relative="1" as="geometry">
                        <mxPoint x="400" y="640" as="targetPoint"/>
                        <Array as="points">
                            <mxPoint x="450" y="630"/>
                        </Array>
                    </mxGeometry>
                </mxCell>
                <mxCell id="9g5ZNy5dnL1bTdVQF-Ld-25" value="" style="rhombus;whiteSpace=wrap;html=1;fillColor=#fad7ac;strokeColor=#b46504;" parent="1" vertex="1">
                    <mxGeometry x="350" y="465" width="200" height="130" as="geometry"/>
                </mxCell>
                <mxCell id="9g5ZNy5dnL1bTdVQF-Ld-26" value="Quel chemin Paco devrait-il prendre?" style="text;html=1;strokeColor=none;fillColor=none;align=center;verticalAlign=middle;whiteSpace=wrap;rounded=0;fontColor=#050505;" parent="1" vertex="1">
                    <mxGeometry x="420" y="515" width="60" height="30" as="geometry"/>
                </mxCell>
                <mxCell id="9g5ZNy5dnL1bTdVQF-Ld-27" style="edgeStyle=none;html=1;exitX=0.5;exitY=1;exitDx=0;exitDy=0;fontSize=12;fontColor=#000000;entryX=0.569;entryY=0.029;entryDx=0;entryDy=0;entryPerimeter=0;" parent="1" source="9g5ZNy5dnL1bTdVQF-Ld-28" target="9g5ZNy5dnL1bTdVQF-Ld-71" edge="1">
                    <mxGeometry relative="1" as="geometry"/>
                </mxCell>
                <mxCell id="9g5ZNy5dnL1bTdVQF-Ld-28" value="" style="rounded=0;whiteSpace=wrap;html=1;fillColor=#b0e3e6;strokeColor=#0e8088;" parent="1" vertex="1">
                    <mxGeometry x="205" y="570" width="90" height="60" as="geometry"/>
                </mxCell>
                <mxCell id="9g5ZNy5dnL1bTdVQF-Ld-29" style="edgeStyle=none;html=1;exitX=0.5;exitY=1;exitDx=0;exitDy=0;entryX=0.5;entryY=0.286;entryDx=0;entryDy=0;entryPerimeter=0;fontColor=#050505;" parent="1" source="9g5ZNy5dnL1bTdVQF-Ld-30" target="9g5ZNy5dnL1bTdVQF-Ld-41" edge="1">
                    <mxGeometry relative="1" as="geometry"/>
                </mxCell>
                <mxCell id="9g5ZNy5dnL1bTdVQF-Ld-30" value="" style="rounded=0;whiteSpace=wrap;html=1;fillColor=#b0e3e6;strokeColor=#0e8088;" parent="1" vertex="1">
                    <mxGeometry x="405" y="650" width="90" height="60" as="geometry"/>
                </mxCell>
                <mxCell id="9g5ZNy5dnL1bTdVQF-Ld-32" value="Paco se retrouve devant une rivière" style="text;html=1;strokeColor=none;fillColor=none;align=center;verticalAlign=middle;whiteSpace=wrap;rounded=0;fontColor=#050505;" parent="1" vertex="1">
                    <mxGeometry x="220" y="585" width="60" height="30" as="geometry"/>
                </mxCell>
                <mxCell id="9g5ZNy5dnL1bTdVQF-Ld-33" value="&lt;font style=&quot;font-size: 11px&quot;&gt;Paco se retrouve devant une montagne&lt;/font&gt;" style="text;html=1;strokeColor=none;fillColor=none;align=center;verticalAlign=middle;whiteSpace=wrap;rounded=0;fontColor=#050505;" parent="1" vertex="1">
                    <mxGeometry x="415" y="665" width="70" height="30" as="geometry"/>
                </mxCell>
                <mxCell id="9g5ZNy5dnL1bTdVQF-Ld-36" style="edgeStyle=none;html=1;fontColor=#050505;" parent="1" edge="1">
                    <mxGeometry relative="1" as="geometry">
                        <mxPoint x="210" y="300" as="sourcePoint"/>
                        <mxPoint x="210" y="80" as="targetPoint"/>
                        <Array as="points">
                            <mxPoint x="210" y="120"/>
                        </Array>
                    </mxGeometry>
                </mxCell>
                <mxCell id="9g5ZNy5dnL1bTdVQF-Ld-37" value="Paco prefere rester dormir" style="text;html=1;strokeColor=none;fillColor=none;align=center;verticalAlign=middle;whiteSpace=wrap;rounded=0;fontColor=#050505;" parent="1" vertex="1">
                    <mxGeometry x="197.5" y="305" width="60" height="30" as="geometry"/>
                </mxCell>
                <mxCell id="9g5ZNy5dnL1bTdVQF-Ld-40" style="edgeStyle=none;html=1;exitX=0.5;exitY=1;exitDx=0;exitDy=0;fontSize=11;fontColor=#000000;" parent="1" source="9g5ZNy5dnL1bTdVQF-Ld-41" target="9g5ZNy5dnL1bTdVQF-Ld-45" edge="1">
                    <mxGeometry relative="1" as="geometry"/>
                </mxCell>
                <mxCell id="9g5ZNy5dnL1bTdVQF-Ld-41" value="&lt;font color=&quot;#000000&quot;&gt;Paco se met à la recherche de matériaux qui pourrait l'aider à monter cette montagne&lt;/font&gt;" style="whiteSpace=wrap;html=1;fillColor=#b1ddf0;strokeColor=#10739e;" parent="1" vertex="1">
                    <mxGeometry x="370" y="760" width="160" height="70" as="geometry"/>
                </mxCell>
                <mxCell id="9g5ZNy5dnL1bTdVQF-Ld-42" value="" style="rounded=0;whiteSpace=wrap;html=1;fillColor=#b0e3e6;strokeColor=#0e8088;" parent="1" vertex="1">
                    <mxGeometry x="335" y="1170" width="90" height="60" as="geometry"/>
                </mxCell>
                <mxCell id="9g5ZNy5dnL1bTdVQF-Ld-43" value="Chemin&amp;nbsp; droit" style="edgeLabel;html=1;align=center;verticalAlign=middle;resizable=0;points=[];" parent="1" vertex="1" connectable="0">
                    <mxGeometry x="449.99598695064634" y="615.0044783981957" as="geometry">
                        <mxPoint y="-2" as="offset"/>
                    </mxGeometry>
                </mxCell>
                <mxCell id="9g5ZNy5dnL1bTdVQF-Ld-44" style="edgeStyle=none;html=1;fontSize=11;fontColor=#000000;" parent="1" source="9g5ZNy5dnL1bTdVQF-Ld-45" target="9g5ZNy5dnL1bTdVQF-Ld-50" edge="1">
                    <mxGeometry relative="1" as="geometry"/>
                </mxCell>
                <mxCell id="9g5ZNy5dnL1bTdVQF-Ld-45" value="&lt;font color=&quot;#000000&quot;&gt;Lors de sa recherche, il fait la connaissance de Layla, une jeune sorcière de la montagne&lt;/font&gt;" style="whiteSpace=wrap;html=1;fillColor=#b1ddf0;strokeColor=#10739e;" parent="1" vertex="1">
                    <mxGeometry x="370" y="890" width="160" height="70" as="geometry"/>
                </mxCell>
                <mxCell id="9g5ZNy5dnL1bTdVQF-Ld-46" style="edgeStyle=none;html=1;exitX=0;exitY=0.5;exitDx=0;exitDy=0;entryX=0;entryY=0;entryDx=0;entryDy=0;fontSize=12;fontColor=#000000;" parent="1" source="9g5ZNy5dnL1bTdVQF-Ld-50" target="9g5ZNy5dnL1bTdVQF-Ld-53" edge="1">
                    <mxGeometry relative="1" as="geometry"/>
                </mxCell>
                <mxCell id="9g5ZNy5dnL1bTdVQF-Ld-47" value="&lt;font style=&quot;font-size: 9px&quot;&gt;&amp;nbsp;Oui, elle lui suggère&lt;font style=&quot;font-size: 9px;&quot;&gt; &lt;br&gt;&lt;/font&gt;de boire&lt;br&gt;&amp;nbsp;une potion&lt;/font&gt;" style="edgeLabel;html=1;align=center;verticalAlign=middle;resizable=0;points=[];fontSize=12;fontColor=#000000;" parent="9g5ZNy5dnL1bTdVQF-Ld-46" vertex="1" connectable="0">
                    <mxGeometry x="-0.3559" y="-2" relative="1" as="geometry">
                        <mxPoint x="-17" y="9" as="offset"/>
                    </mxGeometry>
                </mxCell>
                <mxCell id="9g5ZNy5dnL1bTdVQF-Ld-48" style="edgeStyle=none;html=1;exitX=1;exitY=0.5;exitDx=0;exitDy=0;entryX=0.75;entryY=0;entryDx=0;entryDy=0;" parent="1" source="9g5ZNy5dnL1bTdVQF-Ld-50" target="9g5ZNy5dnL1bTdVQF-Ld-55" edge="1">
                    <mxGeometry relative="1" as="geometry"/>
                </mxCell>
                <mxCell id="9g5ZNy5dnL1bTdVQF-Ld-49" value="Non" style="edgeLabel;html=1;align=center;verticalAlign=middle;resizable=0;points=[];" parent="9g5ZNy5dnL1bTdVQF-Ld-48" vertex="1" connectable="0">
                    <mxGeometry x="-0.292" y="1" relative="1" as="geometry">
                        <mxPoint as="offset"/>
                    </mxGeometry>
                </mxCell>
                <mxCell id="9g5ZNy5dnL1bTdVQF-Ld-50" value="" style="rhombus;whiteSpace=wrap;html=1;fillColor=#fad7ac;strokeColor=#b46504;" parent="1" vertex="1">
                    <mxGeometry x="350" y="1010" width="200" height="130" as="geometry"/>
                </mxCell>
                <mxCell id="9g5ZNy5dnL1bTdVQF-Ld-51" value="&lt;font style=&quot;font-size: 12px&quot;&gt;Est ce que Paco doit lui demander de l'aide ?&lt;/font&gt;" style="text;html=1;strokeColor=none;fillColor=none;align=center;verticalAlign=middle;whiteSpace=wrap;rounded=0;fontSize=11;fontColor=#000000;" parent="1" vertex="1">
                    <mxGeometry x="405" y="1060" width="90" height="30" as="geometry"/>
                </mxCell>
                <mxCell id="9g5ZNy5dnL1bTdVQF-Ld-52" style="edgeStyle=none;html=1;entryX=0.945;entryY=-0.151;entryDx=0;entryDy=0;fontSize=12;fontColor=#0A0A0A;entryPerimeter=0;startArrow=none;" parent="1" source="9g5ZNy5dnL1bTdVQF-Ld-75" target="9g5ZNy5dnL1bTdVQF-Ld-77" edge="1">
                    <mxGeometry relative="1" as="geometry"/>
                </mxCell>
                <mxCell id="9g5ZNy5dnL1bTdVQF-Ld-53" value="&lt;font color=&quot;#0a0a0a&quot;&gt;Il boit la potion&amp;nbsp;&lt;/font&gt;" style="text;html=1;strokeColor=none;fillColor=none;align=center;verticalAlign=middle;whiteSpace=wrap;rounded=0;fontSize=12;fontColor=#FFFFFF;" parent="1" vertex="1">
                    <mxGeometry x="350" y="1185" width="60" height="30" as="geometry"/>
                </mxCell>
                <mxCell id="9g5ZNy5dnL1bTdVQF-Ld-54" style="edgeStyle=none;html=1;fontSize=9;fontColor=#0A0A0A;entryX=0.25;entryY=0;entryDx=0;entryDy=0;" parent="1" target="9g5ZNy5dnL1bTdVQF-Ld-58" edge="1">
                    <mxGeometry relative="1" as="geometry">
                        <mxPoint x="528" y="1220" as="sourcePoint"/>
                        <mxPoint x="525" y="1300" as="targetPoint"/>
                    </mxGeometry>
                </mxCell>
                <mxCell id="9g5ZNy5dnL1bTdVQF-Ld-55" value="" style="rounded=0;whiteSpace=wrap;html=1;fillColor=#b0e3e6;strokeColor=#0e8088;" parent="1" vertex="1">
                    <mxGeometry x="480" y="1170" width="90" height="60" as="geometry"/>
                </mxCell>
                <mxCell id="9g5ZNy5dnL1bTdVQF-Ld-56" value="&lt;font color=&quot;#0a0a0a&quot;&gt;Il escade la montagne avec difficulter&lt;/font&gt;" style="text;html=1;strokeColor=none;fillColor=none;align=center;verticalAlign=middle;whiteSpace=wrap;rounded=0;" parent="1" vertex="1">
                    <mxGeometry x="485" y="1185" width="80" height="30" as="geometry"/>
                </mxCell>
                <mxCell id="9g5ZNy5dnL1bTdVQF-Ld-57" style="edgeStyle=none;html=1;entryX=0.5;entryY=0;entryDx=0;entryDy=0;" parent="1" target="9g5ZNy5dnL1bTdVQF-Ld-96" edge="1">
                    <mxGeometry relative="1" as="geometry">
                        <mxPoint x="590" y="1450" as="sourcePoint"/>
                    </mxGeometry>
                </mxCell>
                <mxCell id="9g5ZNy5dnL1bTdVQF-Ld-58" value="&lt;font color=&quot;#000000&quot;&gt;Arrivé au sommet, il apperçoit la forêt de Valark&lt;/font&gt;" style="whiteSpace=wrap;html=1;fillColor=#b1ddf0;strokeColor=#10739e;" parent="1" vertex="1">
                    <mxGeometry x="490" y="1390" width="160" height="70" as="geometry"/>
                </mxCell>
                <mxCell id="9g5ZNy5dnL1bTdVQF-Ld-59" style="edgeStyle=none;html=1;exitX=0;exitY=0.5;exitDx=0;exitDy=0;entryX=0.5;entryY=0;entryDx=0;entryDy=0;fontSize=12;fontColor=#0A0A0A;" parent="1" source="9g5ZNy5dnL1bTdVQF-Ld-72" target="9g5ZNy5dnL1bTdVQF-Ld-63" edge="1">
                    <mxGeometry relative="1" as="geometry"/>
                </mxCell>
                <mxCell id="9g5ZNy5dnL1bTdVQF-Ld-60" value="&lt;font color=&quot;#000000&quot;&gt;Essayer de nager&lt;/font&gt;" style="edgeLabel;html=1;align=center;verticalAlign=middle;resizable=0;points=[];fontSize=12;fontColor=#0A0A0A;" parent="9g5ZNy5dnL1bTdVQF-Ld-59" vertex="1" connectable="0">
                    <mxGeometry x="-0.4316" y="-1" relative="1" as="geometry">
                        <mxPoint x="-11" y="16" as="offset"/>
                    </mxGeometry>
                </mxCell>
                <mxCell id="9g5ZNy5dnL1bTdVQF-Ld-61" style="edgeStyle=none;html=1;exitX=1;exitY=0.5;exitDx=0;exitDy=0;fontSize=12;fontColor=#000000;entryX=0.767;entryY=-0.167;entryDx=0;entryDy=0;entryPerimeter=0;" parent="1" source="9g5ZNy5dnL1bTdVQF-Ld-72" target="9g5ZNy5dnL1bTdVQF-Ld-67" edge="1">
                    <mxGeometry relative="1" as="geometry">
                        <mxPoint x="320" y="940" as="targetPoint"/>
                    </mxGeometry>
                </mxCell>
                <mxCell id="9g5ZNy5dnL1bTdVQF-Ld-62" value="&lt;font color=&quot;#ffffff&quot;&gt;Trouver des matériaux&lt;/font&gt;" style="edgeLabel;html=1;align=center;verticalAlign=middle;resizable=0;points=[];fontSize=12;fontColor=#000000;" parent="9g5ZNy5dnL1bTdVQF-Ld-61" vertex="1" connectable="0">
                    <mxGeometry x="-0.3818" y="3" relative="1" as="geometry">
                        <mxPoint x="-3" y="19" as="offset"/>
                    </mxGeometry>
                </mxCell>
                <mxCell id="9g5ZNy5dnL1bTdVQF-Ld-63" value="" style="rounded=0;whiteSpace=wrap;html=1;fillColor=#b0e3e6;strokeColor=#0e8088;" parent="1" vertex="1">
                    <mxGeometry x="50" y="950" width="110" height="60" as="geometry"/>
                </mxCell>
                <mxCell id="9g5ZNy5dnL1bTdVQF-Ld-64" style="edgeStyle=none;html=1;exitX=0.75;exitY=1;exitDx=0;exitDy=0;entryX=0.5;entryY=0;entryDx=0;entryDy=0;fontSize=12;fontColor=#FFFFFF;" parent="1" source="9g5ZNy5dnL1bTdVQF-Ld-65" target="9g5ZNy5dnL1bTdVQF-Ld-74" edge="1">
                    <mxGeometry relative="1" as="geometry"/>
                </mxCell>
                <mxCell id="9g5ZNy5dnL1bTdVQF-Ld-65" value="&lt;font color=&quot;#000000&quot;&gt;Avec beaucoup de difficulté il arrive à la traverser&lt;/font&gt;" style="text;html=1;strokeColor=none;fillColor=none;align=center;verticalAlign=middle;whiteSpace=wrap;rounded=0;fontSize=12;fontColor=#FFFFFF;" parent="1" vertex="1">
                    <mxGeometry x="57.5" y="965" width="95" height="30" as="geometry"/>
                </mxCell>
                <mxCell id="9g5ZNy5dnL1bTdVQF-Ld-66" style="edgeStyle=none;html=1;exitX=0.25;exitY=1;exitDx=0;exitDy=0;entryX=0.5;entryY=0;entryDx=0;entryDy=0;fontSize=12;fontColor=#FFFFFF;" parent="1" source="9g5ZNy5dnL1bTdVQF-Ld-67" target="9g5ZNy5dnL1bTdVQF-Ld-74" edge="1">
                    <mxGeometry relative="1" as="geometry"/>
                </mxCell>
                <mxCell id="9g5ZNy5dnL1bTdVQF-Ld-67" value="" style="rounded=0;whiteSpace=wrap;html=1;fillColor=#b0e3e6;strokeColor=#0e8088;" parent="1" vertex="1">
                    <mxGeometry x="210" y="950" width="130" height="60" as="geometry"/>
                </mxCell>
                <mxCell id="9g5ZNy5dnL1bTdVQF-Ld-68" value="Il trouve de un gros morceau d'écorce et des bâtons de bois" style="text;html=1;strokeColor=none;fillColor=none;align=center;verticalAlign=middle;whiteSpace=wrap;rounded=0;fontSize=12;fontColor=#000000;" parent="1" vertex="1">
                    <mxGeometry x="210" y="965" width="120" height="30" as="geometry"/>
                </mxCell>
                <mxCell id="9g5ZNy5dnL1bTdVQF-Ld-69" style="edgeStyle=none;html=1;exitX=0.5;exitY=1;exitDx=0;exitDy=0;fontSize=12;fontColor=#000000;entryX=0.034;entryY=0.879;entryDx=0;entryDy=0;entryPerimeter=0;" parent="1" source="9g5ZNy5dnL1bTdVQF-Ld-74" target="9g5ZNy5dnL1bTdVQF-Ld-58" edge="1">
                    <mxGeometry relative="1" as="geometry">
                        <mxPoint x="190" y="1450" as="targetPoint"/>
                        <Array as="points">
                            <mxPoint x="190" y="1452"/>
                            <mxPoint x="320" y="1450"/>
                        </Array>
                    </mxGeometry>
                </mxCell>
                <mxCell id="9g5ZNy5dnL1bTdVQF-Ld-70" value="" style="edgeStyle=none;html=1;fontSize=12;fontColor=#0A0A0A;endArrow=none;exitX=0;exitY=0.5;exitDx=0;exitDy=0;" parent="1" source="9g5ZNy5dnL1bTdVQF-Ld-75" edge="1">
                    <mxGeometry relative="1" as="geometry">
                        <mxPoint x="50" y="300" as="targetPoint"/>
                        <Array as="points">
                            <mxPoint x="50" y="1320"/>
                        </Array>
                        <mxPoint x="180" y="1330" as="sourcePoint"/>
                    </mxGeometry>
                </mxCell>
                <mxCell id="9g5ZNy5dnL1bTdVQF-Ld-71" value="&lt;font color=&quot;#000000&quot;&gt;Malheureusement, Paco ne sait pas comment nager.&lt;/font&gt;" style="whiteSpace=wrap;html=1;fillColor=#b1ddf0;strokeColor=#10739e;" parent="1" vertex="1">
                    <mxGeometry x="150" y="680" width="160" height="70" as="geometry"/>
                </mxCell>
                <mxCell id="9g5ZNy5dnL1bTdVQF-Ld-72" value="" style="rhombus;whiteSpace=wrap;html=1;fillColor=#fad7ac;strokeColor=#b46504;" parent="1" vertex="1">
                    <mxGeometry x="110" y="750" width="200" height="130" as="geometry"/>
                </mxCell>
                <mxCell id="9g5ZNy5dnL1bTdVQF-Ld-73" value="&lt;span style=&quot;font-size: 12px&quot;&gt;Qu'est ce qu'il devrait faire?&lt;/span&gt;" style="text;html=1;strokeColor=none;fillColor=none;align=center;verticalAlign=middle;whiteSpace=wrap;rounded=0;fontSize=9;fontColor=#0A0A0A;" parent="1" vertex="1">
                    <mxGeometry x="180" y="800" width="60" height="30" as="geometry"/>
                </mxCell>
                <mxCell id="9g5ZNy5dnL1bTdVQF-Ld-74" value="&lt;font color=&quot;#000000&quot;&gt;Paco , marche, marche et marche&amp;nbsp;&lt;/font&gt;" style="whiteSpace=wrap;html=1;fillColor=#b1ddf0;strokeColor=#10739e;" parent="1" vertex="1">
                    <mxGeometry x="110" y="1070" width="160" height="70" as="geometry"/>
                </mxCell>
                <mxCell id="9g5ZNy5dnL1bTdVQF-Ld-75" value="V" style="rounded=0;whiteSpace=wrap;html=1;fillColor=#fad9d5;strokeColor=#ae4132;" parent="1" vertex="1">
                    <mxGeometry x="220" y="1280" width="230" height="80" as="geometry"/>
                </mxCell>
                <mxCell id="9g5ZNy5dnL1bTdVQF-Ld-76" value="" style="edgeStyle=none;html=1;entryX=0.688;entryY=0.05;entryDx=0;entryDy=0;fontSize=12;fontColor=#0A0A0A;endArrow=none;entryPerimeter=0;" parent="1" source="9g5ZNy5dnL1bTdVQF-Ld-53" target="9g5ZNy5dnL1bTdVQF-Ld-75" edge="1">
                    <mxGeometry relative="1" as="geometry">
                        <mxPoint x="381.4478689709781" y="1215" as="sourcePoint"/>
                        <mxPoint x="408.0375" y="1490.4699999999998" as="targetPoint"/>
                    </mxGeometry>
                </mxCell>
                <mxCell id="9g5ZNy5dnL1bTdVQF-Ld-77" value="Il commence à se sentir bizzare et tombe dans les pommes. Il a oublié qu'il faut jamais faire confiance aux sorcières des montagnes" style="text;html=1;strokeColor=none;fillColor=none;align=center;verticalAlign=middle;whiteSpace=wrap;rounded=0;fontSize=12;fontColor=#0A0A0A;" parent="1" vertex="1">
                    <mxGeometry x="222.5" y="1305" width="217.5" height="30" as="geometry"/>
                </mxCell>
                <mxCell id="9g5ZNy5dnL1bTdVQF-Ld-78" style="edgeStyle=none;html=1;exitX=0;exitY=0.5;exitDx=0;exitDy=0;entryX=0.198;entryY=0.07;entryDx=0;entryDy=0;entryPerimeter=0;" parent="1" source="9g5ZNy5dnL1bTdVQF-Ld-82" target="9g5ZNy5dnL1bTdVQF-Ld-87" edge="1">
                    <mxGeometry relative="1" as="geometry">
                        <mxPoint x="412.26" y="1831.98" as="targetPoint"/>
                    </mxGeometry>
                </mxCell>
                <mxCell id="9g5ZNy5dnL1bTdVQF-Ld-79" value="Non" style="edgeLabel;html=1;align=center;verticalAlign=middle;resizable=0;points=[];" parent="9g5ZNy5dnL1bTdVQF-Ld-78" vertex="1" connectable="0">
                    <mxGeometry x="-0.3641" y="-1" relative="1" as="geometry">
                        <mxPoint as="offset"/>
                    </mxGeometry>
                </mxCell>
                <mxCell id="9g5ZNy5dnL1bTdVQF-Ld-80" style="edgeStyle=none;html=1;exitX=1;exitY=0.5;exitDx=0;exitDy=0;fontColor=#000000;entryX=0.907;entryY=-0.022;entryDx=0;entryDy=0;entryPerimeter=0;" parent="1" source="9g5ZNy5dnL1bTdVQF-Ld-82" target="9g5ZNy5dnL1bTdVQF-Ld-89" edge="1">
                    <mxGeometry relative="1" as="geometry">
                        <mxPoint x="682.74" y="1820" as="targetPoint"/>
                    </mxGeometry>
                </mxCell>
                <mxCell id="9g5ZNy5dnL1bTdVQF-Ld-81" value="&lt;font color=&quot;#ffffff&quot;&gt;oui&lt;/font&gt;" style="edgeLabel;html=1;align=center;verticalAlign=middle;resizable=0;points=[];fontColor=#000000;" parent="9g5ZNy5dnL1bTdVQF-Ld-80" vertex="1" connectable="0">
                    <mxGeometry x="-0.5802" y="2" relative="1" as="geometry">
                        <mxPoint as="offset"/>
                    </mxGeometry>
                </mxCell>
                <mxCell id="9g5ZNy5dnL1bTdVQF-Ld-98" value="oui" style="edgeLabel;html=1;align=center;verticalAlign=middle;resizable=0;points=[];fontColor=#000000;" parent="9g5ZNy5dnL1bTdVQF-Ld-80" vertex="1" connectable="0">
                    <mxGeometry x="-0.6117" y="-5" relative="1" as="geometry">
                        <mxPoint as="offset"/>
                    </mxGeometry>
                </mxCell>
                <mxCell id="9g5ZNy5dnL1bTdVQF-Ld-82" value="" style="rhombus;whiteSpace=wrap;html=1;fillColor=#fad7ac;strokeColor=#b46504;" parent="1" vertex="1">
                    <mxGeometry x="472.74" y="1640" width="232.5" height="160" as="geometry"/>
                </mxCell>
                <mxCell id="9g5ZNy5dnL1bTdVQF-Ld-83" value="Paco a t'il demandé de l'aide au courant de sa mission" style="text;html=1;strokeColor=none;fillColor=none;align=center;verticalAlign=middle;whiteSpace=wrap;rounded=0;fontSize=12;fontColor=#000000;" parent="1" vertex="1">
                    <mxGeometry x="558.99" y="1710" width="60" height="30" as="geometry"/>
                </mxCell>
                <mxCell id="9g5ZNy5dnL1bTdVQF-Ld-84" value="Les couleurs de fond de l'interface :&amp;nbsp;&lt;br&gt;&lt;span style=&quot;color: rgb(255 , 255 , 255) ; font-family: &amp;#34;courier&amp;#34; , monospace ; font-size: 21px ; background-color: rgb(147 , 201 , 168)&quot;&gt;#93C9A8,&amp;nbsp;&lt;/span&gt;&lt;span style=&quot;color: rgb(255 , 255 , 255) ; font-family: &amp;#34;courier&amp;#34; , monospace ; font-size: 21px ; background-color: rgb(187 , 217 , 240)&quot;&gt;#BBD9F0,&lt;/span&gt;&lt;span style=&quot;color: rgb(255 , 255 , 255) ; font-family: &amp;#34;courier&amp;#34; , monospace ; font-size: 21px ; background-color: rgb(147 , 201 , 168)&quot;&gt;&lt;br&gt;&lt;/span&gt;" style="text;html=1;strokeColor=none;fillColor=none;align=center;verticalAlign=middle;whiteSpace=wrap;rounded=0;" parent="1" vertex="1">
                    <mxGeometry x="175" y="-210" width="310" height="30" as="geometry"/>
                </mxCell>
                <mxCell id="9g5ZNy5dnL1bTdVQF-Ld-85" value="Les boutons fond et texte&lt;br&gt;&lt;span style=&quot;color: rgb(255 , 255 , 255) ; font-family: &amp;#34;courier&amp;#34; , monospace ; font-size: 21px ; background-color: rgb(194 , 123 , 160)&quot;&gt;#C27BA0&lt;/span&gt;&lt;span style=&quot;color: rgb(255 , 255 , 255) ; font-family: &amp;#34;courier&amp;#34; , monospace ; font-size: 21px ; background-color: rgb(91 , 91 , 91)&quot;&gt;#5B5B5B&lt;/span&gt;&lt;span style=&quot;color: rgb(255 , 255 , 255) ; font-family: &amp;#34;courier&amp;#34; , monospace ; font-size: 21px ; background-color: rgb(194 , 123 , 160)&quot;&gt;&lt;br&gt;&lt;/span&gt;&lt;br&gt;&lt;span style=&quot;color: rgba(0 , 0 , 0 , 0) ; font-family: monospace ; font-size: 0px&quot;&gt;%3CmxGraphModel%3E%3Croot%3E%3CmxCell%20id%3D%220%22%2F%3E%3CmxCell%20id%3D%221%22%20parent%3D%220%22%2F%3E%3CmxCell%20id%3D%222%22%20value%3D%22Les%20couleurs%20de%20fond%20de%20l'interface%20%3A%26amp%3Bnbsp%3B%26lt%3Bbr%26gt%3B%26lt%3Bspan%20style%3D%26quot%3Bcolor%3A%20rgb(255%20%2C%20255%20%2C%20255)%20%3B%20font-family%3A%20%26amp%3B%2334%3Bcourier%26amp%3B%2334%3B%20%2C%20monospace%20%3B%20font-size%3A%2021px%20%3B%20background-color%3A%20rgb(147%20%2C%20201%20%2C%20168)%26quot%3B%26gt%3B%2393C9A8%2C%26amp%3Bnbsp%3B%26lt%3B%2Fspan%26gt%3B%26lt%3Bspan%20style%3D%26quot%3Bcolor%3A%20rgb(255%20%2C%20255%20%2C%20255)%20%3B%20font-family%3A%20%26amp%3B%2334%3Bcourier%26amp%3B%2334%3B%20%2C%20monospace%20%3B%20font-size%3A%2021px%20%3B%20background-color%3A%20rgb(187%20%2C%20217%20%2C%20240)%26quot%3B%26gt%3B%23BBD9F0%2C%26lt%3B%2Fspan%26gt%3B%26lt%3Bspan%20style%3D%26quot%3Bcolor%3A%20rgb(255%20%2C%20255%20%2C%20255)%20%3B%20font-family%3A%20%26amp%3B%2334%3Bcourier%26amp%3B%2334%3B%20%2C%20monospace%20%3B%20font-size%3A%2021px%20%3B%20background-color%3A%20rgb(147%20%2C%20201%20%2C%20168)%26quot%3B%26gt%3B%26lt%3Bbr%26gt%3B%26lt%3B%2Fspan%26gt%3B%22%20style%3D%22text%3Bhtml%3D1%3BstrokeColor%3Dnone%3BfillColor%3Dnone%3Balign%3Dcenter%3BverticalAlign%3Dmiddle%3BwhiteSpace%3Dwrap%3Brounded%3D0%3B%22%20vertex%3D%221%22%20parent%3D%221%22%3E%3CmxGeometry%20x%3D%22120%22%20y%3D%22-180%22%20width%3D%22310%22%20height%3D%2230%22%20as%3D%22geometry%22%2F%3E%3C%2FmxCell%3E%3C%2Froot%3E%3C%2FmxGraphModel%3E&lt;/span&gt;&lt;span style=&quot;color: rgba(0 , 0 , 0 , 0) ; font-family: monospace ; font-size: 0px&quot;&gt;%3CmxGraphModel%3E%3Croot%3E%3CmxCell%20id%3D%220%22%2F%3E%3CmxCell%20id%3D%221%22%20parent%3D%220%22%2F%3E%3CmxCell%20id%3D%222%22%20value%3D%22Les%20couleurs%20de%20fond%20de%20l'interface%20%3A%26amp%3Bnbsp%3B%26lt%3Bbr%26gt%3B%26lt%3Bspan%20style%3D%26quot%3Bcolor%3A%20rgb(255%20%2C%20255%20%2C%20255)%20%3B%20font-family%3A%20%26amp%3B%2334%3Bcourier%26amp%3B%2334%3B%20%2C%20monospace%20%3B%20font-size%3A%2021px%20%3B%20background-color%3A%20rgb(147%20%2C%20201%20%2C%20168)%26quot%3B%26gt%3B%2393C9A8%2C%26amp%3Bnbsp%3B%26lt%3B%2Fspan%26gt%3B%26lt%3Bspan%20style%3D%26quot%3Bcolor%3A%20rgb(255%20%2C%20255%20%2C%20255)%20%3B%20font-family%3A%20%26amp%3B%2334%3Bcourier%26amp%3B%2334%3B%20%2C%20monospace%20%3B%20font-size%3A%2021px%20%3B%20background-color%3A%20rgb(187%20%2C%20217%20%2C%20240)%26quot%3B%26gt%3B%23BBD9F0%2C%26lt%3B%2Fspan%26gt%3B%26lt%3Bspan%20style%3D%26quot%3Bcolor%3A%20rgb(255%20%2C%20255%20%2C%20255)%20%3B%20font-family%3A%20%26amp%3B%2334%3Bcourier%26amp%3B%2334%3B%20%2C%20monospace%20%3B%20font-size%3A%2021px%20%3B%20background-color%3A%20rgb(147%20%2C%20201%20%2C%20168)%26quot%3B%26gt%3B%26lt%3Bbr%26gt%3B%26lt%3B%2Fspan%26gt%3B%22%20style%3D%22text%3Bhtml%3D1%3BstrokeColor%3Dnone%3BfillColor%3Dnone%3Balign%3Dcenter%3BverticalAlign%3Dmiddle%3BwhiteSpace%3Dwrap%3Brounded%3D0%3B%22%20vertex%3D%221%22%20parent%3D%221%22%3E%3CmxGeometry%20x%3D%22120%22%20y%3D%22-180%22%20width%3D%22310%22%20height%3D%2230%22%20as%3D%22geometry%22%2F%3E%3C%2FmxCell%3E%3C%2Froot%3E%3C%2FmxGraphModel%3E&lt;/span&gt;&lt;span style=&quot;color: rgba(0 , 0 , 0 , 0) ; font-family: monospace ; font-size: 0px&quot;&gt;&lt;br&gt;&lt;/span&gt;&lt;span style=&quot;color: rgba(0 , 0 , 0 , 0) ; font-family: monospace ; font-size: 0px&quot;&gt;%3CmxGraphModel%3E%3Croot%3E%3CmxCell%20id%3D%220%22%2F%3E%3CmxCell%20id%3D%221%22%20parent%3D%220%22%2F%3E%3CmxCell%20id%3D%222%22%20value%3D%22Les%20couleurs%20de%20fond%20de%20l'interface%20%3A%26amp%3Bnbsp%3B%26lt%3Bbr%26gt%3B%26lt%3Bspan%20style%3D%26quot%3Bcolor%3A%20rgb(255%20%2C%20255%20%2C%20255)%20%3B%20font-family%3A%20%26amp%3B%2334%3Bcourier%26amp%3B%2334%3B%20%2C%20monospace%20%3B%20font-size%3A%2021px%20%3B%20background-color%3A%20rgb(147%20%2C%20201%20%2C%20168)%26quot%3B%26gt%3B%2393C9A8%2C%26amp%3Bnbsp%3B%26lt%3B%2Fspan%26gt%3B%26lt%3Bspan%20style%3D%26quot%3Bcolor%3A%20rgb(255%20%2C%20255%20%2C%20255)%20%3B%20font-family%3A%20%26amp%3B%2334%3Bcourier%26amp%3B%2334%3B%20%2C%20monospace%20%3B%20font-size%3A%2021px%20%3B%20background-color%3A%20rgb(187%20%2C%20217%20%2C%20240)%26quot%3B%26gt%3B%23BBD9F0%2C%26lt%3B%2Fspan%26gt%3B%26lt%3Bspan%20style%3D%26quot%3Bcolor%3A%20rgb(255%20%2C%20255%20%2C%20255)%20%3B%20font-family%3A%20%26amp%3B%2334%3Bcourier%26amp%3B%2334%3B%20%2C%20monospace%20%3B%20font-size%3A%2021px%20%3B%20background-color%3A%20rgb(147%20%2C%20201%20%2C%20168)%26quot%3B%26gt%3B%26lt%3Bbr%26gt%3B%26lt%3B%2Fspan%26gt%3B%22%20style%3D%22text%3Bhtml%3D1%3BstrokeColor%3Dnone%3BfillColor%3Dnone%3Balign%3Dcenter%3BverticalAlign%3Dmiddle%3BwhiteSpace%3Dwrap%3Brounded%3D0%3B%22%20vertex%3D%221%22%20parent%3D%221%22%3E%3CmxGeometry%20x%3D%22120%22%20y%3D%22-180%22%20width%3D%22310%22%20height%3D%2230%22%20as%3D%22geometry%22%2F%3E%3C%2FmxCell%3E%3C%2Froot%3E%3C%2FmxGraphModel%3E&lt;/span&gt;&amp;nbsp;&amp;nbsp;" style="text;html=1;strokeColor=none;fillColor=none;align=center;verticalAlign=middle;whiteSpace=wrap;rounded=0;" parent="1" vertex="1">
                    <mxGeometry x="222.5" y="-140" width="175" height="30" as="geometry"/>
                </mxCell>
                <mxCell id="9g5ZNy5dnL1bTdVQF-Ld-86" value="L'état de survol&lt;br&gt;&lt;span style=&quot;color: rgb(17 , 17 , 17) ; font-family: &amp;#34;courier&amp;#34; , monospace ; font-size: 21px ; background-color: rgb(255 , 255 , 255)&quot;&gt;#FFFFFF&lt;/span&gt;" style="text;html=1;strokeColor=none;fillColor=none;align=center;verticalAlign=middle;whiteSpace=wrap;rounded=0;" parent="1" vertex="1">
                    <mxGeometry x="225" y="-110" width="125" height="30" as="geometry"/>
                </mxCell>
                <mxCell id="9g5ZNy5dnL1bTdVQF-Ld-87" value="" style="rounded=0;whiteSpace=wrap;html=1;fillColor=#b0e3e6;strokeColor=#0e8088;" parent="1" vertex="1">
                    <mxGeometry x="350" y="1785" width="160" height="60" as="geometry"/>
                </mxCell>
                <mxCell id="9g5ZNy5dnL1bTdVQF-Ld-88" style="edgeStyle=none;html=1;exitX=0;exitY=0.25;exitDx=0;exitDy=0;entryX=0.648;entryY=0.006;entryDx=0;entryDy=0;entryPerimeter=0;" parent="1" source="9g5ZNy5dnL1bTdVQF-Ld-89" target="9g5ZNy5dnL1bTdVQF-Ld-97" edge="1">
                    <mxGeometry relative="1" as="geometry">
                        <mxPoint x="550" y="1860" as="targetPoint"/>
                        <Array as="points">
                            <mxPoint x="520" y="1849"/>
                        </Array>
                    </mxGeometry>
                </mxCell>
                <mxCell id="9g5ZNy5dnL1bTdVQF-Ld-89" value="" style="rounded=0;whiteSpace=wrap;html=1;fillColor=#fad9d5;strokeColor=#ae4132;" parent="1" vertex="1">
                    <mxGeometry x="637.74" y="1834" width="90" height="60" as="geometry"/>
                </mxCell>
                <mxCell id="9g5ZNy5dnL1bTdVQF-Ld-90" style="edgeStyle=none;html=1;entryX=0.58;entryY=0.067;entryDx=0;entryDy=0;entryPerimeter=0;fontColor=#000000;startArrow=none;" parent="1" source="9g5ZNy5dnL1bTdVQF-Ld-97" edge="1">
                    <mxGeometry relative="1" as="geometry">
                        <mxPoint x="510.74" y="1870" as="sourcePoint"/>
                        <mxPoint x="530.8400000000001" y="1957.37" as="targetPoint"/>
                    </mxGeometry>
                </mxCell>
                <mxCell id="9g5ZNy5dnL1bTdVQF-Ld-91" value="Il doit recommencer depuis le début" style="text;html=1;strokeColor=none;fillColor=none;align=center;verticalAlign=middle;whiteSpace=wrap;rounded=0;" parent="1" vertex="1">
                    <mxGeometry x="645.24" y="1849" width="75" height="30" as="geometry"/>
                </mxCell>
                <mxCell id="9g5ZNy5dnL1bTdVQF-Ld-92" style="edgeStyle=none;html=1;exitX=1;exitY=0.5;exitDx=0;exitDy=0;fontColor=#000000;" parent="1" source="9g5ZNy5dnL1bTdVQF-Ld-89" target="9g5ZNy5dnL1bTdVQF-Ld-4" edge="1">
                    <mxGeometry relative="1" as="geometry">
                        <mxPoint x="690" y="40" as="targetPoint"/>
                        <Array as="points">
                            <mxPoint x="730" y="1720"/>
                            <mxPoint x="730" y="40"/>
                            <mxPoint x="690" y="40"/>
                            <mxPoint x="670" y="40"/>
                        </Array>
                    </mxGeometry>
                </mxCell>
                <mxCell id="9g5ZNy5dnL1bTdVQF-Ld-93" value="&lt;font color=&quot;#000000&quot;&gt;Étant donné que Paco a reussi par lui même il accèder à la forêt. Il peut maintenant y entrer&amp;nbsp;&lt;/font&gt;" style="text;html=1;strokeColor=none;fillColor=none;align=center;verticalAlign=middle;whiteSpace=wrap;rounded=0;fontColor=#FFFFFF;" parent="1" vertex="1">
                    <mxGeometry x="350" y="1804" width="150" height="30" as="geometry"/>
                </mxCell>
                <mxCell id="9g5ZNy5dnL1bTdVQF-Ld-94" value="&lt;span style=&quot;color: rgb(17 , 17 , 17) ; font-family: &amp;#34;roboto slab&amp;#34; , serif ; font-size: 19px ; text-align: left ; background-color: rgb(255 , 255 , 255)&quot;&gt;1-aventure&lt;br&gt;2-non&lt;br&gt;3-À la recherche du trésor&lt;br&gt;&lt;/span&gt;" style="text;html=1;align=center;verticalAlign=middle;resizable=0;points=[];autosize=1;strokeColor=none;fillColor=none;" parent="1" vertex="1">
                    <mxGeometry x="510" y="-190" width="210" height="50" as="geometry"/>
                </mxCell>
                <mxCell id="9g5ZNy5dnL1bTdVQF-Ld-95" style="edgeStyle=none;html=1;exitX=0.5;exitY=1;exitDx=0;exitDy=0;" parent="1" source="9g5ZNy5dnL1bTdVQF-Ld-96" target="9g5ZNy5dnL1bTdVQF-Ld-82" edge="1">
                    <mxGeometry relative="1" as="geometry"/>
                </mxCell>
                <mxCell id="9g5ZNy5dnL1bTdVQF-Ld-96" value="&lt;font color=&quot;#000000&quot;&gt;Paco doit répondre à une question avant de terminer sa quête&lt;/font&gt;" style="whiteSpace=wrap;html=1;fillColor=#b1ddf0;strokeColor=#10739e;" parent="1" vertex="1">
                    <mxGeometry x="508.99" y="1550" width="160" height="70" as="geometry"/>
                </mxCell>
                <mxCell id="9g5ZNy5dnL1bTdVQF-Ld-97" value="&lt;font color=&quot;#000000&quot;&gt;Après des heures et des heures de recherches il trouve le fameux diamant dans la grotte. Cependant celui-ci est protégé par Layla. étant donné que Paco n'a demander l'aide personne pour trouver le trésor elle le lui donne&lt;/font&gt;" style="whiteSpace=wrap;html=1;fillColor=#FCFCFC;strokeColor=#6c8ebf;" parent="1" vertex="1">
                    <mxGeometry x="395" y="1920" width="195" height="110" as="geometry"/>
                </mxCell>
            </root>
        </mxGraphModel>
    </diagram>
</mxfile>